<?xml version="1.0" standalone="no"?><!DOCTYPE svg PUBLIC "-//W3C//DTD SVG 1.1//EN" "http://www.w3.org/Graphics/SVG/1.1/DTD/svg11.dtd"><svg t="1785556810290" class="icon" viewBox="0 0 1024 1024" version="1.1" xmlns="http://www.w3.org/2000/svg" p-id="1274" xmlns:xlink="http://www.w3.org/1999/xlink" width="200" height="200"><path d="M645.5 411.13m-174.06 0a174.06 174.06 0 1 0 348.12 0 174.06 174.06 0 1 0-348.12 0Z" fill="#3BDBFF" p-id="1275"></path><path d="M702.94 432.87a173.33 173.33 0 0 0-111.57 40.47c-32.37-86.5-115.72-148.09-213.5-148.09C252 325.25 150 427.27 150 553.13 150 678.79 251.73 780.7 377.32 781h325.62a174.07 174.07 0 0 0 0-348.13z" fill="#1C95FF" p-id="1276"></path><path d="M809.57 469.36a174 174 0 0 0-218.2 4 228.63 228.63 0 0 0-109.09-122.8 174.1 174.1 0 1 0 327.29 118.8z" fill="#0F6AFF" p-id="1277"></path></svg>